<svg width="40" height="40" viewBox="0 0 40 40" fill="none" xmlns="http://www.w3.org/2000/svg">
<circle cx="20" cy="20" r="19.5" stroke="#D8E9F5"/>
<path d="M16.4106 11.3124C15.7504 11.4882 15.2348 12.0155 15.059 12.6835C15.0121 12.8554 15.0004 13.1523 15.0004 13.953V14.9999H15.1684C15.7309 14.9999 16.5864 15.2226 17.2075 15.5273C20.0161 16.9101 20.8559 20.496 18.9614 23.0312L18.7543 23.3085L18.7426 25.9218C18.7348 27.8788 18.7192 28.5624 18.684 28.6444L18.6332 28.7499H22.8637C27.5161 28.7499 27.309 28.7616 27.7778 28.5116C28.0512 28.3632 28.3911 28.0194 28.5317 27.7421C28.7621 27.289 28.7504 27.5741 28.7504 21.6718V16.2499H27.0786C25.27 16.2499 25.1723 16.2421 24.7582 16.0312C24.4809 15.8905 24.1371 15.5507 23.9887 15.2773C23.7582 14.8437 23.7504 14.7577 23.7504 12.9218V11.2499L20.1879 11.2538C17.2036 11.2538 16.5864 11.2655 16.4106 11.3124ZM22.2114 15.1015C22.4184 15.2538 22.4809 15.3788 22.4809 15.6249C22.4809 15.871 22.4184 15.996 22.2114 16.1483C22.1098 16.2265 22.0434 16.2304 21.0239 16.2421C20.3286 16.2499 19.8911 16.2382 19.7973 16.2148C19.4028 16.0976 19.2504 15.5546 19.52 15.2304C19.7114 15.0077 19.7543 14.9999 20.9848 15.0116C22.0473 15.0194 22.1098 15.0233 22.2114 15.1015ZM25.9614 18.2265C26.1684 18.3788 26.2309 18.5038 26.2309 18.7499C26.2309 18.996 26.1684 19.121 25.9614 19.2734C25.8559 19.3515 25.8051 19.3554 23.8364 19.3671C22.4887 19.3749 21.77 19.3671 21.6723 19.3359C21.2778 19.2226 21.1254 18.6796 21.395 18.3554C21.5942 18.121 21.5473 18.1249 23.7973 18.1366C25.8051 18.1444 25.8559 18.1444 25.9614 18.2265ZM25.9614 21.3515C26.1684 21.5038 26.2309 21.6288 26.2309 21.8749C26.2309 22.121 26.1684 22.246 25.9614 22.3984C25.8559 22.4765 25.8051 22.4804 23.8364 22.4921C22.4887 22.4999 21.77 22.4921 21.6723 22.4609C21.2778 22.3476 21.1254 21.8046 21.395 21.4804C21.5942 21.246 21.5473 21.2499 23.7973 21.2616C25.8051 21.2694 25.8559 21.2694 25.9614 21.3515ZM25.9614 24.4765C26.1684 24.6288 26.2309 24.7538 26.2309 24.9999C26.2309 25.246 26.1684 25.371 25.9614 25.5234C25.8559 25.6054 25.809 25.6054 23.2114 25.6171C21.4262 25.6249 20.52 25.6171 20.4223 25.5859C20.0278 25.4726 19.8754 24.9296 20.145 24.6054C20.3442 24.3671 20.2426 24.3749 23.1723 24.3866C25.8129 24.3944 25.8559 24.3944 25.9614 24.4765Z" fill="#54BAF7"/>
<path d="M25.0004 13.0583C25.0004 14.1833 25.0121 14.5232 25.0551 14.6208C25.1215 14.7849 25.3207 14.9529 25.4809 14.9802C25.5512 14.9919 26.227 14.9958 26.9848 14.9919L28.3598 14.9802L26.6801 13.3005L25.0004 11.6208V13.0583Z" fill="#54BAF7"/>
<path d="M14.348 16.3091C13.5629 16.4497 12.852 16.8325 12.3012 17.4145C10.8988 18.8794 10.9066 21.1489 12.3207 22.6099C12.9809 23.2974 13.8559 23.688 14.8246 23.7388C16.602 23.8286 18.1566 22.6724 18.641 20.9028C18.7621 20.4731 18.7621 19.5278 18.641 19.0981C18.2387 17.6255 17.0902 16.563 15.6371 16.3091C15.2387 16.2388 14.7309 16.2388 14.348 16.3091Z" fill="#1D83BF"/>
<path d="M12.5004 26.2891C12.5004 28.4609 12.4965 28.418 12.7543 28.6133C12.9028 28.7305 13.0746 28.7695 13.27 28.7305C13.395 28.707 13.5356 28.5898 14.2114 27.918L15.0004 27.1328L15.7934 27.918C16.4653 28.5898 16.6059 28.707 16.7309 28.7305C16.9262 28.7695 17.0981 28.7305 17.2465 28.6133C17.5043 28.418 17.5004 28.457 17.5004 26.2969V24.3398L17.1293 24.5156C16.4106 24.8516 15.8325 24.9766 15.0004 24.9766C14.0707 24.9805 13.4614 24.8203 12.5317 24.3438C12.5121 24.3359 12.5004 25.2109 12.5004 26.2891Z" fill="#1D83BF"/>
</svg>
