<svg width="40" height="40" viewBox="0 0 40 40" fill="none" xmlns="http://www.w3.org/2000/svg">
<circle cx="20" cy="20" r="19.5" stroke="#D8E9F5"/>
<path fill-rule="evenodd" clip-rule="evenodd" d="M19.6238 10.8494C19.8616 10.8494 20.0994 10.8494 20.3372 10.8494C20.9459 11.0119 21.3739 11.3864 21.6212 11.9729C22.0968 11.9848 22.5724 11.9967 23.048 12.0086C23.2085 12.074 23.3214 12.1869 23.3868 12.3474C23.4106 13.251 23.4106 14.1546 23.3868 15.0582C23.3214 15.2187 23.2085 15.3317 23.048 15.3971C21.003 15.4209 18.958 15.4209 16.913 15.3971C16.7525 15.3317 16.6396 15.2187 16.5742 15.0582C16.5504 14.1546 16.5504 13.251 16.5742 12.3474C16.6396 12.1869 16.7525 12.074 16.913 12.0086C17.3886 11.9967 17.8642 11.9848 18.3398 11.9729C18.5871 11.3864 19.0151 11.0119 19.6238 10.8494Z" fill="#1D83BF"/>
<path fill-rule="evenodd" clip-rule="evenodd" d="M25.9729 29.1112C21.9781 29.1112 17.9833 29.1112 13.9884 29.1112C13.5491 28.9869 13.2697 28.7016 13.1502 28.2552C13.1264 23.4994 13.1264 18.7436 13.1502 13.9879C13.2632 13.5421 13.5426 13.2627 13.9884 13.1497C14.4638 13.1319 14.9394 13.1259 15.4152 13.1319C15.4018 13.8107 15.4196 14.4884 15.4687 15.165C15.6983 16.0128 16.2511 16.4706 17.1272 16.5382C19.0295 16.562 20.9318 16.562 22.8341 16.5382C23.7102 16.4706 24.2631 16.0128 24.4927 15.165C24.5417 14.4884 24.5595 13.8107 24.5462 13.1319C25.0219 13.1259 25.4975 13.1319 25.9729 13.1497C26.4188 13.2627 26.6982 13.5421 26.8111 13.9879C26.8349 18.7436 26.8349 23.4994 26.8111 28.2552C26.6917 28.7016 26.4123 28.9869 25.9729 29.1112ZM19.2316 17.7331C19.8475 17.7244 20.0555 18.0097 19.8558 18.5891C19.0533 19.3916 18.2508 20.1942 17.4482 20.9967C17.2342 21.1156 17.0202 21.1156 16.8062 20.9967C16.3841 20.5746 15.9621 20.1525 15.54 19.7305C15.3537 19.3605 15.4429 19.0811 15.8075 18.8923C15.9837 18.8551 16.1501 18.8789 16.3069 18.9636C16.5684 19.2252 16.83 19.4868 17.0916 19.7483C17.1153 19.7721 17.1391 19.7721 17.1629 19.7483C17.8379 19.0554 18.5275 18.3837 19.2316 17.7331ZM21.6928 18.8388C22.5147 18.8228 23.3351 18.8407 24.1539 18.8923C24.4524 19.0317 24.5654 19.2635 24.4927 19.5878C24.3999 19.8215 24.2275 19.9464 23.9755 19.9623C23.1537 19.9961 22.3333 19.9842 21.5144 19.9267C21.2158 19.7872 21.1029 19.5554 21.1756 19.2311C21.2762 19.0001 21.4486 18.8693 21.6928 18.8388ZM19.2316 22.2986C19.8475 22.2899 20.0555 22.5753 19.8558 23.1546C19.0533 23.9572 18.2508 24.7597 17.4482 25.5622C17.2342 25.6811 17.0202 25.6811 16.8062 25.5622C16.3841 25.1402 15.9621 24.7181 15.54 24.296C15.3537 23.9261 15.4429 23.6467 15.8075 23.4578C15.9837 23.4207 16.1501 23.4445 16.3069 23.5291C16.5684 23.7907 16.83 24.0523 17.0916 24.3138C17.1153 24.3376 17.1391 24.3376 17.1629 24.3138C17.8379 23.621 18.5275 22.9492 19.2316 22.2986ZM21.6928 23.4043C22.5147 23.3884 23.3351 23.4062 24.1539 23.4578C24.4524 23.5972 24.5654 23.8291 24.4927 24.1533C24.3999 24.3871 24.2275 24.5119 23.9755 24.5279C23.1537 24.5616 22.3333 24.5498 21.5144 24.4922C21.2158 24.3528 21.1029 24.1209 21.1756 23.7967C21.2762 23.5656 21.4486 23.4348 21.6928 23.4043Z" fill="#54BAF7"/>
</svg>
