<svg width="40" height="40" viewBox="0 0 40 40" fill="none" xmlns="http://www.w3.org/2000/svg">
<path d="M19.3547 11.0429C17.3508 11.3593 15.8274 12.9374 15.5852 14.9413C15.3508 16.8749 16.5774 19.6991 18.1751 20.9023C19.3157 21.7616 20.4446 21.8163 21.5852 21.0741C23.0032 20.1523 24.218 17.9413 24.4172 15.9218C24.6399 13.6952 23.2532 11.7109 21.0657 11.1288C20.8274 11.0624 20.6204 11.0429 20.1165 11.0351C19.761 11.0273 19.4212 11.0312 19.3547 11.0429Z" fill="#1D83BF"/>
<path d="M16.5032 20.9258C16.2337 20.9609 15.5618 21.1445 15.2532 21.2695C13.8548 21.8359 12.7298 23.0078 12.2298 24.4258C12.011 25.0508 11.9368 25.4883 11.9407 26.2109C11.9407 26.7461 11.9524 26.9062 12.0227 27.1602C12.304 28.1953 13.0032 28.707 14.4055 28.9141C14.8977 28.9883 25.1009 28.9883 25.593 28.9141C26.9993 28.707 27.6946 28.1953 27.9759 27.1602C28.0969 26.7148 28.0969 25.7305 27.9759 25.168C27.7454 24.1055 27.2766 23.2188 26.5462 22.4805C26.0032 21.9297 25.4641 21.5664 24.7805 21.2852C24.429 21.1406 23.7805 20.9648 23.4368 20.918L23.261 20.8984L23.1907 21.0898C23.1555 21.1953 23.0501 21.3906 22.9602 21.5234C22.7415 21.8516 22.011 22.6055 21.3899 23.1445C20.7884 23.6602 20.0462 24.2578 19.9993 24.2578C19.9798 24.2578 19.7219 24.0625 19.4251 23.8242C17.9173 22.6055 17.0071 21.6602 16.8079 21.0898C16.7649 20.9688 16.718 20.9023 16.679 20.9023C16.6477 20.9062 16.5696 20.918 16.5032 20.9258ZM24.5462 24.2812C24.5579 24.3164 24.5696 24.543 24.5696 24.7891V25.2344H25.0149C25.261 25.2344 25.4876 25.2461 25.5227 25.2578C25.6165 25.293 25.6165 26.3086 25.5227 26.3438C25.4876 26.3555 25.261 26.3672 25.0149 26.3672H24.5696V26.8242C24.5696 27.0781 24.554 27.3086 24.5384 27.3359C24.511 27.3711 24.3743 27.3828 23.9798 27.375L23.4563 27.3633L23.4446 26.8633L23.4329 26.3672H22.9485C22.5071 26.3672 22.4602 26.3594 22.4212 26.293C22.4016 26.25 22.3821 26.0273 22.3821 25.8008C22.3821 25.5742 22.4016 25.3516 22.4212 25.3086C22.4602 25.2422 22.5071 25.2344 22.9485 25.2344H23.4368V24.7539C23.4368 24.4883 23.4485 24.2578 23.4641 24.2461C23.4759 24.2305 23.7219 24.2188 24.0071 24.2188C24.4407 24.2188 24.5266 24.2266 24.5462 24.2812Z" fill="#54BAF7"/>
<circle cx="20" cy="20" r="19.5" stroke="#D8E9F5"/>
</svg>
